<mxfile host="Electron" agent="Mozilla/5.0 (Windows NT 10.0; Win64; x64) AppleWebKit/537.36 (KHTML, like Gecko) draw.io/28.1.2 Chrome/138.0.7204.243 Electron/37.4.0 Safari/537.36" version="28.1.2">
  <diagram name="56kCloud Website AWS Architecture" id="architecture">
    <mxGraphModel dx="2065" dy="1158" grid="1" gridSize="10" guides="1" tooltips="1" connect="1" arrows="1" fold="1" page="1" pageScale="1" pageWidth="1654" pageHeight="1169" math="0" shadow="0">
      <root>
        <mxCell id="0" />
        <mxCell id="1" parent="0" />
        <mxCell id="aws-cloud" value="" style="sketch=0;outlineConnect=0;gradientColor=none;html=1;whiteSpace=wrap;fontSize=12;fontStyle=0;container=1;pointerEvents=0;collapsible=0;recursiveResize=0;shape=mxgraph.aws4.group;grIcon=mxgraph.aws4.group_aws_cloud;strokeColor=#232F3E;fillColor=none;verticalAlign=top;align=left;spacingLeft=30;fontColor=#232F3E;dashed=0;" parent="1" vertex="1">
          <mxGeometry x="50" y="50" width="1554" height="1069" as="geometry" />
        </mxCell>
        <mxCell id="igw" value="Internet Gateway" style="sketch=0;outlineConnect=0;fontColor=#232F3E;gradientColor=none;fillColor=#8C4FFF;strokeColor=none;dashed=0;verticalLabelPosition=bottom;verticalAlign=top;align=center;html=1;fontSize=12;fontStyle=0;aspect=fixed;pointerEvents=1;shape=mxgraph.aws4.internet_gateway;" parent="aws-cloud" vertex="1">
          <mxGeometry x="757" y="80" width="78" height="78" as="geometry" />
        </mxCell>
        <mxCell id="route53" value="Route 53&#xa;DNS" style="sketch=0;points=[[0,0,0],[0.25,0,0],[0.5,0,0],[0.75,0,0],[1,0,0],[0,1,0],[0.25,1,0],[0.5,1,0],[0.75,1,0],[1,1,0],[0,0.25,0],[0,0.5,0],[0,0.75,0],[1,0.25,0],[1,0.5,0],[1,0.75,0]];outlineConnect=0;fontColor=#232F3E;gradientColor=#945DF2;gradientDirection=north;fillColor=#5A30B5;strokeColor=#ffffff;dashed=0;verticalLabelPosition=bottom;verticalAlign=top;align=center;html=1;fontSize=12;fontStyle=0;aspect=fixed;shape=mxgraph.aws4.resourceIcon;resIcon=mxgraph.aws4.route_53;" parent="aws-cloud" vertex="1">
          <mxGeometry x="300" y="90" width="78" height="78" as="geometry" />
        </mxCell>
        <mxCell id="cloudfront" value="CloudFront CDN&#xa;(Global Distribution)" style="sketch=0;points=[[0,0,0],[0.25,0,0],[0.5,0,0],[0.75,0,0],[1,0,0],[0,1,0],[0.25,1,0],[0.5,1,0],[0.75,1,0],[1,1,0],[0,0.25,0],[0,0.5,0],[0,0.75,0],[1,0.25,0],[1,0.5,0],[1,0.75,0]];outlineConnect=0;fontColor=#232F3E;gradientColor=#945DF2;gradientDirection=north;fillColor=#5A30B5;strokeColor=#ffffff;dashed=0;verticalLabelPosition=bottom;verticalAlign=top;align=center;html=1;fontSize=12;fontStyle=0;aspect=fixed;shape=mxgraph.aws4.resourceIcon;resIcon=mxgraph.aws4.cloudfront;" parent="aws-cloud" vertex="1">
          <mxGeometry x="500" y="90" width="78" height="78" as="geometry" />
        </mxCell>
        <mxCell id="vercel-container" value="Vercel Platform" style="rounded=1;whiteSpace=wrap;html=1;fillColor=#e1d5e7;strokeColor=#9673a6;verticalAlign=top;fontStyle=1;fontSize=14;spacingTop=10;" parent="aws-cloud" vertex="1">
          <mxGeometry x="200" y="250" width="400" height="200" as="geometry" />
        </mxCell>
        <mxCell id="vercel-nextjs" value="Next.js Application&#xa;(www.56k.cloud)&#xa;&#xa;• Static Site Generation&#xa;• API Routes&#xa;• Image Optimization&#xa;• Automatic Deployments" style="rounded=1;whiteSpace=wrap;html=1;fillColor=#fff2cc;strokeColor=#d6b656;" parent="aws-cloud" vertex="1">
          <mxGeometry x="220" y="290" width="160" height="140" as="geometry" />
        </mxCell>
        <mxCell id="vercel-cms-redirect" value="CMS Redirect&#xa;(blog.56k.cloud)&#xa;&#xa;• Redirects to main site&#xa;• URL rewriting" style="rounded=1;whiteSpace=wrap;html=1;fillColor=#fff2cc;strokeColor=#d6b656;" parent="aws-cloud" vertex="1">
          <mxGeometry x="420" y="290" width="160" height="140" as="geometry" />
        </mxCell>
        <mxCell id="vpc" value="VPC (Virtual Private Cloud)" style="points=[[0,0],[0.25,0],[0.5,0],[0.75,0],[1,0],[1,0.25],[1,0.5],[1,0.75],[1,1],[0.75,1],[0.5,1],[0.25,1],[0,1],[0,0.75],[0,0.5],[0,0.25]];outlineConnect=0;gradientColor=none;html=1;whiteSpace=wrap;fontSize=12;fontStyle=0;container=1;pointerEvents=0;collapsible=0;recursiveResize=0;shape=mxgraph.aws4.group;grIcon=mxgraph.aws4.group_vpc;strokeColor=#248814;fillColor=none;verticalAlign=top;align=left;spacingLeft=30;fontColor=#AAB7B8;dashed=0;" parent="aws-cloud" vertex="1">
          <mxGeometry x="700" y="250" width="804" height="700" as="geometry" />
        </mxCell>
        <mxCell id="public-subnet" value="Public Subnet" style="points=[[0,0],[0.25,0],[0.5,0],[0.75,0],[1,0],[1,0.25],[1,0.5],[1,0.75],[1,1],[0.75,1],[0.5,1],[0.25,1],[0,1],[0,0.75],[0,0.5],[0,0.25]];outlineConnect=0;gradientColor=none;html=1;whiteSpace=wrap;fontSize=12;fontStyle=0;container=1;pointerEvents=0;collapsible=0;recursiveResize=0;shape=mxgraph.aws4.group;grIcon=mxgraph.aws4.group_security_group;strokeColor=#248814;fillColor=none;verticalAlign=top;align=left;spacingLeft=30;fontColor=#248814;dashed=0;" parent="vpc" vertex="1">
          <mxGeometry x="40" y="50" width="720" height="200" as="geometry" />
        </mxCell>
        <mxCell id="alb" value="Application&#xa;Load Balancer" style="sketch=0;points=[[0,0,0],[0.25,0,0],[0.5,0,0],[0.75,0,0],[1,0,0],[0,1,0],[0.25,1,0],[0.5,1,0],[0.75,1,0],[1,1,0],[0,0.25,0],[0,0.5,0],[0,0.75,0],[1,0.25,0],[1,0.5,0],[1,0.75,0]];outlineConnect=0;fontColor=#232F3E;gradientColor=#F78E04;gradientDirection=north;fillColor=#D05C17;strokeColor=#ffffff;dashed=0;verticalLabelPosition=bottom;verticalAlign=top;align=center;html=1;fontSize=12;fontStyle=0;aspect=fixed;shape=mxgraph.aws4.resourceIcon;resIcon=mxgraph.aws4.application_load_balancer;" parent="public-subnet" vertex="1">
          <mxGeometry x="321" y="80" width="78" height="78" as="geometry" />
        </mxCell>
        <mxCell id="private-subnet-1" value="Private Subnet 1 (AZ-a)" style="points=[[0,0],[0.25,0],[0.5,0],[0.75,0],[1,0],[1,0.25],[1,0.5],[1,0.75],[1,1],[0.75,1],[0.5,1],[0.25,1],[0,1],[0,0.75],[0,0.5],[0,0.25]];outlineConnect=0;gradientColor=none;html=1;whiteSpace=wrap;fontSize=12;fontStyle=0;container=1;pointerEvents=0;collapsible=0;recursiveResize=0;shape=mxgraph.aws4.group;grIcon=mxgraph.aws4.group_security_group;strokeColor=#147EBA;fillColor=none;verticalAlign=top;align=left;spacingLeft=30;fontColor=#147EBA;dashed=0;" parent="vpc" vertex="1">
          <mxGeometry x="40" y="300" width="350" height="360" as="geometry" />
        </mxCell>
        <mxCell id="ecs-cluster" value="ECS Fargate Cluster" style="sketch=0;points=[[0,0,0],[0.25,0,0],[0.5,0,0],[0.75,0,0],[1,0,0],[0,1,0],[0.25,1,0],[0.5,1,0],[0.75,1,0],[1,1,0],[0,0.25,0],[0,0.5,0],[0,0.75,0],[1,0.25,0],[1,0.5,0],[1,0.75,0]];outlineConnect=0;fontColor=#232F3E;gradientColor=#F78E04;gradientDirection=north;fillColor=#D05C17;strokeColor=#ffffff;dashed=0;verticalLabelPosition=bottom;verticalAlign=top;align=center;html=1;fontSize=12;fontStyle=0;aspect=fixed;shape=mxgraph.aws4.resourceIcon;resIcon=mxgraph.aws4.ecs;" parent="private-subnet-1" vertex="1">
          <mxGeometry x="50" y="50" width="78" height="78" as="geometry" />
        </mxCell>
        <mxCell id="strapi-cms" value="Strapi CMS&#xa;(cms.56k.cloud)&#xa;&#xa;• Content Management&#xa;• REST API&#xa;• Admin Panel&#xa;• Custom Plugins" style="rounded=1;whiteSpace=wrap;html=1;fillColor=#dae8fc;strokeColor=#6c8ebf;" parent="private-subnet-1" vertex="1">
          <mxGeometry x="150" y="50" width="170" height="120" as="geometry" />
        </mxCell>
        <mxCell id="revalidate-plugin" value="Revalidate Plugin&#xa;&#xa;• Webhook to Vercel&#xa;• Cache Invalidation&#xa;• Auto-rebuild triggers" style="rounded=1;whiteSpace=wrap;html=1;fillColor=#e1d5e7;strokeColor=#9673a6;" parent="private-subnet-1" vertex="1">
          <mxGeometry x="150" y="190" width="170" height="120" as="geometry" />
        </mxCell>
        <mxCell id="private-subnet-2" value="Private Subnet 2 (AZ-b)" style="points=[[0,0],[0.25,0],[0.5,0],[0.75,0],[1,0],[1,0.25],[1,0.5],[1,0.75],[1,1],[0.75,1],[0.5,1],[0.25,1],[0,1],[0,0.75],[0,0.5],[0,0.25]];outlineConnect=0;gradientColor=none;html=1;whiteSpace=wrap;fontSize=12;fontStyle=0;container=1;pointerEvents=0;collapsible=0;recursiveResize=0;shape=mxgraph.aws4.group;grIcon=mxgraph.aws4.group_security_group;strokeColor=#147EBA;fillColor=none;verticalAlign=top;align=left;spacingLeft=30;fontColor=#147EBA;dashed=0;" parent="vpc" vertex="1">
          <mxGeometry x="410" y="300" width="350" height="360" as="geometry" />
        </mxCell>
        <mxCell id="rds-primary" value="RDS PostgreSQL&#xa;(Primary)" style="sketch=0;points=[[0,0,0],[0.25,0,0],[0.5,0,0],[0.75,0,0],[1,0,0],[0,1,0],[0.25,1,0],[0.5,1,0],[0.75,1,0],[1,1,0],[0,0.25,0],[0,0.5,0],[0,0.75,0],[1,0.25,0],[1,0.5,0],[1,0.75,0]];outlineConnect=0;fontColor=#232F3E;gradientColor=#4D72F3;gradientDirection=north;fillColor=#3334B9;strokeColor=#ffffff;dashed=0;verticalLabelPosition=bottom;verticalAlign=top;align=center;html=1;fontSize=12;fontStyle=0;aspect=fixed;shape=mxgraph.aws4.resourceIcon;resIcon=mxgraph.aws4.rds;" parent="private-subnet-2" vertex="1">
          <mxGeometry x="50" y="50" width="78" height="78" as="geometry" />
        </mxCell>
        <mxCell id="rds-replica" value="RDS PostgreSQL&#xa;(Read Replica)" style="sketch=0;points=[[0,0,0],[0.25,0,0],[0.5,0,0],[0.75,0,0],[1,0,0],[0,1,0],[0.25,1,0],[0.5,1,0],[0.75,1,0],[1,1,0],[0,0.25,0],[0,0.5,0],[0,0.75,0],[1,0.25,0],[1,0.5,0],[1,0.75,0]];outlineConnect=0;fontColor=#232F3E;gradientColor=#4D72F3;gradientDirection=north;fillColor=#3334B9;strokeColor=#ffffff;dashed=0;verticalLabelPosition=bottom;verticalAlign=top;align=center;html=1;fontSize=12;fontStyle=0;aspect=fixed;shape=mxgraph.aws4.resourceIcon;resIcon=mxgraph.aws4.rds;" parent="private-subnet-2" vertex="1">
          <mxGeometry x="50" y="180" width="78" height="78" as="geometry" />
        </mxCell>
        <mxCell id="s3-assets-eu" value="S3 Bucket&#xa;(EU-Central-1)&#xa;56k-strapi.s3.eu-central-1.amazonaws.com&#xa;&#xa;• Media Files&#xa;• Static Assets&#xa;• Public Read Access" style="sketch=0;points=[[0,0,0],[0.25,0,0],[0.5,0,0],[0.75,0,0],[1,0,0],[0,1,0],[0.25,1,0],[0.5,1,0],[0.75,1,0],[1,1,0],[0,0.25,0],[0,0.5,0],[0,0.75,0],[1,0.25,0],[1,0.5,0],[1,0.75,0]];outlineConnect=0;fontColor=#232F3E;gradientColor=#60A337;gradientDirection=north;fillColor=#277116;strokeColor=#ffffff;dashed=0;verticalLabelPosition=bottom;verticalAlign=top;align=center;html=1;fontSize=12;fontStyle=0;aspect=fixed;shape=mxgraph.aws4.resourceIcon;resIcon=mxgraph.aws4.s3;" parent="private-subnet-2" vertex="1">
          <mxGeometry x="180" y="50" width="78" height="78" as="geometry" />
        </mxCell>
        <mxCell id="s3-assets-us" value="S3 Bucket&#xa;(US-East-1)&#xa;56kcloud-cms-assets.s3.us-east-1.amazonaws.com&#xa;&#xa;• Media Files&#xa;• Static Assets&#xa;• Public Read Access" style="sketch=0;points=[[0,0,0],[0.25,0,0],[0.5,0,0],[0.75,0,0],[1,0,0],[0,1,0],[0.25,1,0],[0.5,1,0],[0.75,1,0],[1,1,0],[0,0.25,0],[0,0.5,0],[0,0.75,0],[1,0.25,0],[1,0.5,0],[1,0.75,0]];outlineConnect=0;fontColor=#232F3E;gradientColor=#60A337;gradientDirection=north;fillColor=#277116;strokeColor=#ffffff;dashed=0;verticalLabelPosition=bottom;verticalAlign=top;align=center;html=1;fontSize=12;fontStyle=0;aspect=fixed;shape=mxgraph.aws4.resourceIcon;resIcon=mxgraph.aws4.s3;" parent="private-subnet-2" vertex="1">
          <mxGeometry x="180" y="180" width="78" height="78" as="geometry" />
        </mxCell>
        <mxCell id="external-services" value="External Services" style="rounded=1;whiteSpace=wrap;html=1;fillColor=#f8cecc;strokeColor=#b85450;verticalAlign=top;fontStyle=1;fontSize=14;spacingTop=10;" parent="aws-cloud" vertex="1">
          <mxGeometry x="100" y="950" width="500" height="90" as="geometry" />
        </mxCell>
        <mxCell id="deepl" value="DeepL API&#xa;(Translation)" style="rounded=1;whiteSpace=wrap;html=1;fillColor=#fff2cc;strokeColor=#d6b656;" parent="aws-cloud" vertex="1">
          <mxGeometry x="120" y="1000" width="100" height="30" as="geometry" />
        </mxCell>
        <mxCell id="hubspot" value="HubSpot API&#xa;(CRM)" style="rounded=1;whiteSpace=wrap;html=1;fillColor=#fff2cc;strokeColor=#d6b656;" parent="aws-cloud" vertex="1">
          <mxGeometry x="240" y="1000" width="100" height="30" as="geometry" />
        </mxCell>
        <mxCell id="slack" value="Slack Webhook&#xa;(Notifications)" style="rounded=1;whiteSpace=wrap;html=1;fillColor=#fff2cc;strokeColor=#d6b656;" parent="aws-cloud" vertex="1">
          <mxGeometry x="360" y="1000" width="100" height="30" as="geometry" />
        </mxCell>
        <mxCell id="github" value="GitHub&#xa;(Source Code)" style="rounded=1;whiteSpace=wrap;html=1;fillColor=#fff2cc;strokeColor=#d6b656;" parent="aws-cloud" vertex="1">
          <mxGeometry x="480" y="1000" width="100" height="30" as="geometry" />
        </mxCell>
        <mxCell id="legend-container" value="Legend" style="rounded=1;whiteSpace=wrap;html=1;fillColor=#f5f5f5;strokeColor=#666666;verticalAlign=top;fontStyle=1;fontSize=14;spacingTop=10;" parent="aws-cloud" vertex="1">
          <mxGeometry x="1300" y="960" width="200" height="80" as="geometry" />
        </mxCell>
        <mxCell id="legend-aws" value="AWS Services" style="text;html=1;strokeColor=#d6b656;fillColor=#fff2cc;align=center;verticalAlign=middle;whiteSpace=wrap;rounded=1;fontSize=10;" parent="aws-cloud" vertex="1">
          <mxGeometry x="1320" y="1000" width="70" height="30" as="geometry" />
        </mxCell>
        <mxCell id="legend-external" value="External/Third-party" style="text;html=1;strokeColor=#9673a6;fillColor=#e1d5e7;align=center;verticalAlign=middle;whiteSpace=wrap;rounded=1;fontSize=10;" parent="aws-cloud" vertex="1">
          <mxGeometry x="1410" y="1000" width="70" height="30" as="geometry" />
        </mxCell>
        <mxCell id="flow1" value="" style="endArrow=classic;html=1;rounded=0;strokeWidth=2;strokeColor=#FF6B6B;" parent="aws-cloud" source="route53" target="cloudfront" edge="1">
          <mxGeometry width="50" height="50" relative="1" as="geometry">
            <mxPoint x="400" y="200" as="sourcePoint" />
            <mxPoint x="450" y="150" as="targetPoint" />
          </mxGeometry>
        </mxCell>
        <mxCell id="flow2" value="" style="endArrow=classic;html=1;rounded=0;strokeWidth=2;strokeColor=#4ECDC4;" parent="aws-cloud" source="cloudfront" target="vercel-nextjs" edge="1">
          <mxGeometry width="50" height="50" relative="1" as="geometry">
            <mxPoint x="500" y="200" as="sourcePoint" />
            <mxPoint x="350" y="300" as="targetPoint" />
          </mxGeometry>
        </mxCell>
        <mxCell id="flow3" value="" style="endArrow=classic;html=1;rounded=0;strokeWidth=2;strokeColor=#45B7D1;" parent="aws-cloud" source="vercel-nextjs" target="alb" edge="1">
          <mxGeometry width="50" height="50" relative="1" as="geometry">
            <mxPoint x="400" y="400" as="sourcePoint" />
            <mxPoint x="450" y="350" as="targetPoint" />
          </mxGeometry>
        </mxCell>
        <mxCell id="flow4" value="" style="endArrow=classic;html=1;rounded=0;strokeWidth=2;strokeColor=#45B7D1;" parent="aws-cloud" source="alb" target="strapi-cms" edge="1">
          <mxGeometry width="50" height="50" relative="1" as="geometry">
            <mxPoint x="1100" y="400" as="sourcePoint" />
            <mxPoint x="900" y="450" as="targetPoint" />
          </mxGeometry>
        </mxCell>
        <mxCell id="flow5" value="" style="endArrow=classic;html=1;rounded=0;strokeWidth=2;strokeColor=#96CEB4;" parent="aws-cloud" source="strapi-cms" target="rds-primary" edge="1">
          <mxGeometry width="50" height="50" relative="1" as="geometry">
            <mxPoint x="950" y="500" as="sourcePoint" />
            <mxPoint x="1050" y="450" as="targetPoint" />
          </mxGeometry>
        </mxCell>
        <mxCell id="flow6" value="" style="endArrow=classic;html=1;rounded=0;strokeWidth=2;strokeColor=#FFEAA7;" parent="aws-cloud" source="strapi-cms" target="s3-assets-eu" edge="1">
          <mxGeometry width="50" height="50" relative="1" as="geometry">
            <mxPoint x="950" y="450" as="sourcePoint" />
            <mxPoint x="1050" y="400" as="targetPoint" />
          </mxGeometry>
        </mxCell>
        <mxCell id="flow7" value="" style="endArrow=classic;html=1;rounded=0;strokeWidth=2;strokeColor=#DDA0DD;dashed=1;" parent="aws-cloud" source="revalidate-plugin" target="vercel-nextjs" edge="1">
          <mxGeometry width="50" height="50" relative="1" as="geometry">
            <mxPoint x="800" y="500" as="sourcePoint" />
            <mxPoint x="400" y="400" as="targetPoint" />
          </mxGeometry>
        </mxCell>
        <mxCell id="label1" value="DNS Resolution" style="text;html=1;strokeColor=none;fillColor=none;align=center;verticalAlign=middle;whiteSpace=wrap;rounded=0;fontSize=10;fontColor=#FF6B6B;" parent="aws-cloud" vertex="1">
          <mxGeometry x="390" y="100" width="80" height="20" as="geometry" />
        </mxCell>
        <mxCell id="label2" value="Static Content&#xa;&amp; API Calls" style="text;html=1;strokeColor=none;fillColor=none;align=center;verticalAlign=middle;whiteSpace=wrap;rounded=0;fontSize=10;fontColor=#4ECDC4;" parent="aws-cloud" vertex="1">
          <mxGeometry x="350" y="200" width="80" height="30" as="geometry" />
        </mxCell>
        <mxCell id="label3" value="CMS API&#xa;Requests" style="text;html=1;strokeColor=none;fillColor=none;align=center;verticalAlign=middle;whiteSpace=wrap;rounded=0;fontSize=10;fontColor=#45B7D1;" parent="aws-cloud" vertex="1">
          <mxGeometry x="550" y="280" width="60" height="30" as="geometry" />
        </mxCell>
        <mxCell id="label4" value="Database&#xa;Operations" style="text;html=1;strokeColor=none;fillColor=none;align=center;verticalAlign=middle;whiteSpace=wrap;rounded=0;fontSize=10;fontColor=#96CEB4;" parent="aws-cloud" vertex="1">
          <mxGeometry x="950" y="500" width="60" height="30" as="geometry" />
        </mxCell>
        <mxCell id="label5" value="Media Upload&#xa;&amp; Storage" style="text;html=1;strokeColor=none;fillColor=none;align=center;verticalAlign=middle;whiteSpace=wrap;rounded=0;fontSize=10;fontColor=#FFEAA7;" parent="aws-cloud" vertex="1">
          <mxGeometry x="1050" y="450" width="60" height="30" as="geometry" />
        </mxCell>
        <mxCell id="label6" value="Webhook&#xa;Revalidation" style="text;html=1;strokeColor=none;fillColor=none;align=center;verticalAlign=middle;whiteSpace=wrap;rounded=0;fontSize=10;fontColor=#DDA0DD;" parent="aws-cloud" vertex="1">
          <mxGeometry x="450" y="500" width="60" height="30" as="geometry" />
        </mxCell>
        <mxCell id="title" value="56kCloud Website - AWS Architecture Diagram" style="text;html=1;strokeColor=none;fillColor=none;align=center;verticalAlign=middle;whiteSpace=wrap;rounded=0;fontSize=18;fontStyle=1;fontColor=#232F3E;" parent="aws-cloud" vertex="1">
          <mxGeometry x="600" y="20" width="400" height="30" as="geometry" />
        </mxCell>
        <mxCell id="domains" value="Domains:&#xa;• www.56k.cloud (Main Site)&#xa;• cms.56k.cloud (CMS Admin)&#xa;• blog.56k.cloud (Redirects)" style="text;html=1;strokeColor=#666666;fillColor=#f5f5f5;align=left;verticalAlign=top;whiteSpace=wrap;rounded=1;fontSize=10;spacingLeft=10;spacingTop=5;" parent="aws-cloud" vertex="1">
          <mxGeometry x="40" y="90" width="180" height="100" as="geometry" />
        </mxCell>
      </root>
    </mxGraphModel>
  </diagram>
</mxfile>
